<svg xmlns="http://www.w3.org/2000/svg" viewBox="0 0 500 500" width="100%" height="100%">
  <defs>
    <linearGradient id="signupGradient" x1="0%" y1="0%" x2="100%" y2="100%">
      <stop offset="0%" style="stop-color:#667eea;stop-opacity:1" />
      <stop offset="100%" style="stop-color:#764ba2;stop-opacity:1" />
    </linearGradient>
  </defs>
  
  <rect width="100%" height="100%" fill="url(#signupGradient)" />
  
  <g transform="translate(250, 250) scale(0.7)">
    <path fill="#ffffff" opacity="0.2" d="M-200,-200 Q0,0 200,200 Q0,0 -200,-200" />
    
    <g transform="translate(0, -50)">
      <path fill="#ffffff" opacity="0.1" d="M-150,-100 Q0,0 150,100 Q0,0 -150,-100" />
    </g>
  </g>
  
  <g transform="translate(250, 250) scale(0.6)">
    <circle cx="0" cy="0" r="180" fill="rgba(255,255,255,0.05)" />
    
    <g transform="translate(-100, -50)">
      <path fill="#ffffff" d="M50,20 Q80,50 50,80 Q20,50 50,20" stroke="#ffffff" stroke-width="3" opacity="0.5" />
      <rect x="40" y="90" width="20" height="100" fill="#ffffff" opacity="0.3" />
      <circle cx="50" cy="230" r="20" fill="#ffffff" opacity="0.4" />
    </g>
    
    <g transform="translate(100, 50)">
      <path fill="#ffffff" d="M-50,-20 Q-80,-50 -50,-80 Q-20,-50 -50,-20" stroke="#ffffff" stroke-width="3" opacity="0.5" />
      <rect x="-60" y="-190" width="20" height="100" fill="#ffffff" opacity="0.3" />
      <circle cx="-50" cy="-230" r="20" fill="#ffffff" opacity="0.4" />
    </g>
  </g>
  
  <text x="50%" y="90%" text-anchor="middle" fill="white" font-size="20" font-weight="bold" opacity="0.7">
    Create Account
  </text>
</svg>
